<svg width="59" height="53" viewBox="0 0 59 53" fill="none" xmlns="http://www.w3.org/2000/svg">
<path d="M47.958 34.2229C47.6105 34.3385 47.2539 34.4502 46.8906 34.5586C46.0863 32.0001 45.0009 29.2795 43.6725 26.4687C44.9401 23.7248 45.9836 21.039 46.7654 18.4971C47.4155 18.6861 48.0465 18.8855 48.6545 19.0959C54.5353 21.1302 58.1225 24.1379 58.1225 26.4554C58.1225 28.924 54.2484 32.1285 47.958 34.2229ZM45.3479 39.4199C45.9838 42.6479 46.0747 45.5663 45.6534 47.8478C45.2749 49.8979 44.5138 51.2647 43.5726 51.8121C41.5699 52.977 37.2869 51.4628 32.668 47.4689C32.1385 47.011 31.6051 46.5222 31.0701 46.0048C32.8607 44.0369 34.6504 41.7491 36.397 39.2084C39.4692 38.9344 42.3717 38.4866 45.0039 37.8752C45.1335 38.4007 45.2487 38.916 45.3479 39.4199ZM18.9528 51.6108C16.9961 52.3052 15.4376 52.3251 14.4956 51.7793C12.491 50.6175 11.6577 46.133 12.7944 40.1174C12.9246 39.4284 13.0796 38.7208 13.2582 37.9974C15.8615 38.5758 18.7427 38.9921 21.8223 39.2429C23.5807 41.7291 25.4221 44.0144 27.2777 46.0153C26.8722 46.4086 26.4684 46.783 26.0668 47.1358C23.6012 49.3015 21.1303 50.838 18.9528 51.6108ZM9.78578 34.2078C6.68701 33.1436 4.12793 31.7604 2.3738 30.251C0.797605 28.8946 0.0018158 27.548 0.0018158 26.4554C0.0018158 24.1301 3.45182 21.1643 9.20582 19.1484C9.90399 18.9038 10.6349 18.6733 11.3933 18.4568C12.1885 21.0561 13.2317 23.7737 14.4906 26.5218C13.2154 29.3107 12.1574 32.0716 11.3544 34.7013C10.8137 34.5452 10.2898 34.3808 9.78578 34.2078ZM12.8587 13.19C11.6643 7.05685 12.4575 2.43022 14.4535 1.26925C16.5796 0.0324584 21.2809 1.79586 26.2359 6.21686C26.5527 6.49943 26.8707 6.79519 27.1895 7.10118C25.3431 9.09338 23.5186 11.3615 21.7758 13.833C18.787 14.1114 15.926 14.5585 13.2955 15.1573C13.1301 14.4888 12.9836 13.8321 12.8587 13.19ZM40.2714 19.9916C39.6425 18.9002 38.997 17.8346 38.3388 16.7981C40.3665 17.0556 42.3092 17.3975 44.1336 17.8159C43.5858 19.5798 42.9032 21.424 42.0996 23.3146C41.5231 22.2149 40.9134 21.1061 40.2714 19.9916ZM29.0925 9.05076C30.3447 10.4139 31.5988 11.9359 32.8322 13.5872C31.5893 13.5283 30.3309 13.4976 29.0622 13.4976C27.8055 13.4976 26.5564 13.5276 25.3212 13.5855C26.5558 11.9496 27.8207 10.4296 29.0925 9.05076ZM17.8421 20.0105C17.2139 21.1049 16.6155 22.2077 16.0481 23.3125C15.2576 21.4285 14.5812 19.5759 14.0287 17.7871C15.8419 17.3793 17.7755 17.046 19.7902 16.7933C19.1228 17.8393 18.4719 18.9128 17.8421 20.0102V20.0105ZM19.8482 36.3121C17.7666 36.0787 15.804 35.7625 13.9913 35.366C14.5526 33.5452 15.2439 31.6531 16.0512 29.7285C16.6201 30.8325 17.2208 31.9357 17.8528 33.0326H17.8529C18.4967 34.1501 19.1637 35.2447 19.8482 36.3121ZM29.1676 44.0523C27.8809 42.6573 26.5975 41.1142 25.344 39.4543C26.5608 39.5023 27.8014 39.5269 29.0622 39.5269C30.3575 39.5269 31.638 39.4975 32.8984 39.4412C31.6609 41.1309 30.4114 42.6764 29.1676 44.0523ZM42.1255 29.6304C42.9749 31.5758 43.6909 33.4581 44.2595 35.2478C42.4169 35.6702 40.4275 36.0104 38.3314 36.2632C38.9911 35.2127 39.6423 34.1288 40.2822 33.0139C40.9296 31.8858 41.5443 30.7561 42.1255 29.6304ZM37.9306 31.651C36.9372 33.3818 35.9173 35.034 34.8819 36.5936C32.9961 36.7291 31.0479 36.7989 29.0622 36.7989C27.0846 36.7989 25.1609 36.7372 23.3084 36.6164C22.2313 35.0363 21.1893 33.3792 20.2022 31.6659H20.2024C19.218 29.9573 18.3119 28.2342 17.4909 26.5209C18.3116 24.8035 19.2153 23.0785 20.1942 21.373L20.1939 21.3733C21.1754 19.6632 22.2082 18.0142 23.2754 16.444C25.1654 16.3004 27.1035 16.2255 29.0621 16.2255H29.0622C31.0297 16.2255 32.9702 16.301 34.8597 16.4458C35.9105 18.0045 36.9364 19.6482 37.9217 21.3585C38.9181 23.0881 39.8335 24.8016 40.6613 26.4821C39.836 28.1915 38.9226 29.9223 37.9306 31.651ZM43.531 1.18809C45.6591 2.42124 46.4867 7.39454 45.1496 13.9161C45.0643 14.3322 44.9683 14.7561 44.864 15.1856C42.2274 14.5743 39.3644 14.1194 36.3668 13.8369C34.6206 11.3382 32.8111 9.06656 30.9947 7.09993C31.4831 6.62787 31.9707 6.17776 32.4563 5.75299C37.148 1.65025 41.5331 0.0304124 43.531 1.18809Z" fill="white"/>
</svg>
